PathFileType	4	(X/Y/Z)	9_2_102_p1_0-302_filt_butterworth.trc
DataRate	CameraRate	NumFrames	NumMarkers	Units	OrigDataRate	OrigDataStartFrame	OrigNumFrames
60.0	60.0	7	27	m	60.0	0	302
Frame#	Time	RHip			RKnee			RAnkle			RBigToe			RSmallToe			RHeel			LHip			LKnee			LAnkle			LBigToe			LSmallToe			LHeel			Neck			Head			Nose			RShoulder			RElbow			RWrist			RThumb			RIndex			RPinky			LShoulder			LElbow			LWrist			LThumb			LIndex			LPinky			
		X1	Y1	Z1	X2	Y2	Z2	X3	Y3	Z3	X4	Y4	Z4	X5	Y5	Z5	X6	Y6	Z6	X7	Y7	Z7	X8	Y8	Z8	X9	Y9	Z9	X10	Y10	Z10	X11	Y11	Z11	X12	Y12	Z12	X13	Y13	Z13	X14	Y14	Z14	X15	Y15	Z15	X16	Y16	Z16	X17	Y17	Z17	X18	Y18	Z18	X19	Y19	Z19	X20	Y20	Z20	X21	Y21	Z21	X22	Y22	Z22	X23	Y23	Z23	X24	Y24	Z24	X25	Y25	Z25	X26	Y26	Z26	X27	Y27	Z27	
0	0.0	0.3080279826128888	0.5140876632654849	1.111361050536105	0.30032213829040033	0.5695736647678556	1.5039630843581682	0.2875276350515923	0.6621731646844682	1.9212011052156721	0.28063263941874694	0.4363091923055852	1.8960255591573951	0.33654414628639534	0.47068470244832333	1.9016757930930166	0.2729286053431662	0.7316655614559311	1.9785227562632284	0.08255106226435888	0.49258992112980715	1.1042340596544764	0.09368865750417932	0.5560087457268449	1.502756389061092	0.07528988009932633	0.6298753438080915	1.9089567564518022	0.10692202535967023	0.4233507677067251	1.880400667920643	0.05343023144836033	0.44313665095227384	1.8659749935294787	0.0723708730853671	0.7200641372441743	1.9765935600809623	0.20137612076945638	0.4371425772515642	0.6008363571067301	0.2212645345086935	0.366243459395754	0.34350884695559736	0.20772792553223018	0.2896942935424964	0.48674650149584775	0.3678547975975922	0.4352256719489036	0.6793651335905321	0.4692988495431032	0.5779528354113187	0.8990498779161182	0.48753685219456866	0.5977377500328676	1.1361522228042005	0.4361047177245614	0.5340442954126599	1.23925735448339	0.4421972754211022	0.5470432588023435	1.2552290898847025	0.4867429075808537	0.6143690737452062	1.2574908648930176	0.042237417615103745	0.41206206416162594	0.6844633886432596	-0.07969591623375696	0.5670601315511802	0.9248721123723403	-0.06762189745067147	0.5824071418562267	1.1129605817715982	-0.015379728206458942	0.5281122361630569	1.1897906270905108	-0.05172466309704249	0.5684728188457601	1.2379255760944297	-0.080640172088465	0.626474316068786	1.2440688583137753
1	0.0166666666666666	0.3072792872668618	0.511673892687948	1.1014031897547505	0.2984715182666277	0.5634421280141939	1.501391074967373	0.2859775561966384	0.6683527402683292	1.9240684028419484	0.27992592058463306	0.43296208330027214	1.8942398308633412	0.33386184403559793	0.4640390956417221	1.8982585599418789	0.270386899220174	0.7303007363982175	1.9786566658246012	0.08005159422288094	0.4948672203525466	1.101273594421722	0.09329569938200992	0.5561411879679077	1.5041562475854267	0.07526812482651601	0.6300189068178833	1.9091613014434496	0.1040222949493358	0.4157671959739019	1.8775677624608402	0.05383690474434802	0.441979902047312	1.8676495356463607	0.07187943037157993	0.7206003334160805	1.978914484263644	0.19985914377656627	0.442018955678031	0.6019697484369471	0.2213488261224935	0.3659812229743989	0.3435215446717713	0.2075865746091946	0.28980025504738294	0.4848184144234863	0.36369488910592845	0.431409026214659	0.6791600623765449	0.4724902011541473	0.5774146905392332	0.9000747381196229	0.48964411630861876	0.5701122088503714	1.1298724232272592	0.4357290282103159	0.528208792869719	1.2407389003371756	0.445600643933286	0.5341765332514907	1.2602875504555215	0.4805953347859857	0.5937600586209386	1.2578381483989318	0.041031451623020486	0.4149365597270688	0.6848443572676679	-0.07982304979980852	0.5610005834942084	0.9206102760945262	-0.07285567618609584	0.5621308129482696	1.1217354879522077	-0.023734631474325057	0.5157501985480394	1.2076843809387652	-0.05032513378550571	0.5418391002761392	1.254631620539663	-0.10156123632423152	0.5791687443548874	1.245964563357811
2	0.0333333333333333	0.3069106428434142	0.5103324229634436	1.0957913388637777	0.29793384926912586	0.5610085524666574	1.5008229414310081	0.28444474825773636	0.6749888524201882	1.9288068814811903	0.27991468520144575	0.4325956443252764	1.8940303520211492	0.33147030367431835	0.4628344683915653	1.8978456649529343	0.2689884212890599	0.7301623429460252	1.9799914558537786	0.07878090357982348	0.49469552266162636	1.0991795284699457	0.09297813320575217	0.5562929664067964	1.5052598384952938	0.07527146727824925	0.6300943163237991	1.9093119375619703	0.10307999628211809	0.40949916886727966	1.8760607184367766	0.05409905354258735	0.4412691298187715	1.868708975946109	0.07140674821534837	0.7210943778571399	1.9810728794008283	0.19870258744143057	0.445422635035404	0.6020715968082765	0.2213858870299853	0.3658141393037964	0.34351076415589243	0.20746180327662883	0.28972133746625284	0.48366896084071315	0.36109896713926326	0.4272677789574327	0.6789963026230752	0.4735708676311708	0.5702221470922292	0.900293936957941	0.4888873214198177	0.5323272183016431	1.1222787871121414	0.4344718400809491	0.5142160746313126	1.2413225590848016	0.4477947354072038	0.5120809983687957	1.2651724555774173	0.4735670530928815	0.5678805000726997	1.2586097564767453	0.04091119706399823	0.4149341564379993	0.6848707101676154	-0.07875340711892956	0.5546172433885048	0.9177586912386057	-0.07603362412694553	0.5351580506836334	1.126482655109282	-0.02907425923762756	0.5046266192113691	1.2224168486680198	-0.049311409161179716	0.5132065709730598	1.2624361265357202	-0.11710300346652278	0.532060735781613	1.2464431433292489
3	0.05	0.30701290254667324	0.5101255380695479	1.095715080873156	0.298700532271594	0.5612281363675994	1.502206836503085	0.28340788663384636	0.6803357614454865	1.9339694249012407	0.28032145551218113	0.43438823044483155	1.8951003696110635	0.32957719076097525	0.4667561741352063	1.9002087208052187	0.2687945531277076	0.7310709170135071	1.9822484179716344	0.07895884220061689	0.4929673132504948	1.0992789880079232	0.09303124418996946	0.5565575558890663	1.5059288881592192	0.07529523967277685	0.6301044556879396	1.909428374851553	0.10390516980532405	0.40618298743616854	1.8760564226131924	0.0541096427538807	0.44110005039078193	1.8694854353442585	0.07104981590333695	0.7214522600103043	1.9825122452921202	0.19777678404239338	0.4478650747812981	0.6017443216380663	0.22138304713591372	0.3657582337325116	0.34348764769157936	0.207462716432128	0.28972511178602184	0.4833988349472029	0.3603737716759419	0.42355422364334105	0.6788179016597304	0.4716839332790178	0.5551139595711007	0.8995379420023527	0.48384698311047053	0.48933167758351237	1.1145886239625056	0.4298764624947494	0.4884552998163305	1.239525236345345	0.44654961787327385	0.478774764300899	1.2680840285535722	0.46621527555821207	0.5386101951256601	1.2599546819464444	0.041524984660254394	0.4132761555027281	0.6847324496817779	-0.07543626661142118	0.5454367607104482	0.9173968952353948	-0.07593706912724586	0.49969388476420057	1.1276272788611341	-0.030387793663275618	0.4940782191351121	1.2318171905630475	-0.04887891014175262	0.48221163670684386	1.2603292190556938	-0.12350770716012856	0.4914263374783177	1.2461235405198599
4	0.0666666666666666	0.3073332557829884	0.5104989658375714	1.0989839078365742	0.2997608399060325	0.5610267089259376	1.504051400038066	0.28310739698767445	0.6824270342655583	1.9369374952861615	0.28050212386561674	0.43604198880652667	1.8965587278637142	0.32843829780024714	0.47131195207278653	1.902732589049739	0.269131556420092	0.7320285893516735	1.9841254247618745	0.07998099410356137	0.4921606071869626	1.1025556060350115	0.09376277150991061	0.5570836794155419	1.5066600983144574	0.07531002297282426	0.6301003279438551	1.9095496344826657	0.10516193902771204	0.40653496500624114	1.8763746752981407	0.05383246414100614	0.4412891370112896	1.8707390650186448	0.07087170271983818	0.7216174739623684	1.9829544886677843	0.19707119375471993	0.4498373220546237	0.6021170571106567	0.22137675124910308	0.36576926270826937	0.34347711509614876	0.20782245052561177	0.2906689723890739	0.48362135272316575	0.36016842969618845	0.42122628039403637	0.6784999435148374	0.46775675869802613	0.5361431449698384	0.8985159333246647	0.4755930172229449	0.4542288654707377	1.1089649698045603	0.41976033570947757	0.4553587612989158	1.2341355025375709	0.43980716984159685	0.4394285541655143	1.2669687692609932	0.46017101262681254	0.50919312335804	1.2607271390787884	0.04208206056867867	0.413029426145322	0.6847331537170135	-0.06917368785292083	0.5291648542725075	0.9187030900195927	-0.07224508059294471	0.46038349230818176	1.1279251562415158	-0.027714775168740543	0.4814358684444694	1.235477219681906	-0.04784792469750508	0.4516383614982763	1.2534170545729963	-0.11977175330786054	0.46016172445680503	1.2451285598044532
5	0.0833333333333333	0.30754554242569254	0.511031309077575	1.1023251982126117	0.30028635179954277	0.5597622186425117	1.5052253994284137	0.28327150150201086	0.680593628254767	1.936725373053747	0.2802488802582287	0.4367205678081896	1.8982041501281333	0.3282975530393887	0.47334547220197076	1.9035348796611087	0.26944181875203993	0.7324675805248148	1.9848101771288111	0.0809177557553748	0.4939760882343059	1.108272691118544	0.0950394673779805	0.5577256595331628	1.5078805612341368	0.07527980282775107	0.6301690652868277	1.909587457365533	0.10605801896981105	0.4097064433904949	1.8763230327087665	0.053372045291246624	0.44159480083142466	1.8725327111942547	0.07085794433391954	0.7216813640005203	1.9827644301326448	0.1967767730996103	0.45109826439474804	0.6034369957241956	0.2213840740477464	0.36579514642331934	0.3434797800732049	0.2087095463726406	0.29327292808571853	0.48394926372010516	0.359024290158834	0.4201020127701212	0.6780449138203555	0.46350886895536136	0.5165208814043079	0.8980525535508892	0.46628823958072324	0.43253173025709674	1.1062485518979783	0.4047854624943517	0.4249876189814535	1.2257671765071898	0.42775545856679237	0.4037294675637835	1.2627784402221043	0.45569242656562037	0.4770455190854249	1.2588202358722016	0.042584397141693625	0.41559509434671915	0.684961895317024	-0.060709320616558295	0.5063845678816234	0.9197991395637247	-0.06529358921044048	0.4259842279832424	1.1287440115262684	-0.02036156506605938	0.4622519974469368	1.2340701169083352	-0.04288851278494248	0.42425343020975953	1.2461966198233532	-0.10793018347777462	0.4326185295575949	1.2420433426363
6	0.1	0.3076143280235193	0.5115573191098979	1.1037195486903224	0.3000178046748634	0.5584011793984849	1.505244842800074	0.28361160700147114	0.6752221781439252	1.933934867869279	0.27979958691232515	0.43674996770793756	1.899868145414381	0.32926411711298353	0.4728634178683339	1.9026975985816663	0.26951352127081774	0.732376216149812	1.9842875275585214	0.08123756424974467	0.4987073387637634	1.1138759600657968	0.09623605107888054	0.5581045389537342	1.5093641703119927	0.07517278945585147	0.6304476268068498	1.9092721035517315	0.10654712655679495	0.4136812490152024	1.8769432738390401	0.052939479040690844	0.44182284574684927	1.874186516384018	0.07093239135744536	0.7218359867718788	1.9825288646225676	0.19682450409973531	0.45171357000684226	0.605087377307823	0.2213990359486069	0.3658042898154666	0.3434709528257137	0.20987604579475594	0.29687376291985357	0.48418512356124455	0.35714431472090513	0.4193913907680695	0.6776257618127346	0.4597507033848701	0.49605963152215204	0.8983744697055797	0.4570123977762165	0.4188357677587464	1.1056523761379815	0.38785789613825733	0.4025553340020469	1.2163406432389077	0.41219166461369783	0.3797373044550234	1.2583454767482831	0.45016635279810446	0.43840576297947703	1.2533631964507421	0.04358863001921073	0.4199890043777542	0.6853985409868818	-0.05249646977991257	0.48497941496024854	0.9203388188107327	-0.055519304575828786	0.40252307707045365	1.129646758372808	-0.007606671229749109	0.43442881467475747	1.2291063117900287	-0.030784273796393872	0.4000341860642257	1.2401785817485897	-0.09165416388777645	0.4048942023368837	1.2369165318034891
